<?xml version="1.0" encoding="utf-8"?>
<!-- Generator: Adobe Illustrator 12.0.1, SVG Export Plug-In . SVG Version: 6.00 Build 51448)  -->
<!DOCTYPE svg PUBLIC "-//W3C//DTD SVG 1.1//EN" "http://www.w3.org/Graphics/SVG/1.1/DTD/svg11.dtd" [
	<!ENTITY ns_svg "http://www.w3.org/2000/svg">
	<!ENTITY ns_xlink "http://www.w3.org/1999/xlink">
]>
<svg  version="1.1" id="レイヤー_1" xmlns="http://www.w3.org/2000/svg" xmlns:xlink="http://www.w3.org/1999/xlink" width="393.746" height="64.625"
	 viewBox="0 0 393.746 64.625" overflow="visible" enable-background="new 0 0 393.746 64.625" xml:space="preserve">
<g>
	<linearGradient id="XMLID_20_" gradientUnits="userSpaceOnUse" x1="179.6377" y1="37.624" x2="179.6377" y2="108.6575">
		<stop  offset="0" style="stop-color:#008CFF"/>
		<stop  offset="1" style="stop-color:#FFFFFF"/>
	</linearGradient>
	<path fill="url(#XMLID_20_)" d="M175.268,37.465c-0.168-3.205,0.662-6.361,2.492-9.469c1.828-3.107,5.662-4.773,11.498-4.996v-5.25
		c-4.145,0.057-7.289,0.893-9.43,2.508c-2.143,1.615-3.787,3.773-4.936,6.473v-7.855h-4.875V63h5.25V37.465z"/>
	<linearGradient id="XMLID_21_" gradientUnits="userSpaceOnUse" x1="142.4102" y1="37.626" x2="142.4102" y2="108.6586">
		<stop  offset="0" style="stop-color:#008CFF"/>
		<stop  offset="1" style="stop-color:#FFFFFF"/>
	</linearGradient>
	<path fill="url(#XMLID_21_)" d="M152.643,33.941c-0.07,0.672-0.242,1.188-0.52,1.551c-1.15,0.84-3.303,1.391-6.459,1.656
		s-6.563,0.699-10.223,1.301c-3.66,0.602-6.808,1.859-9.445,3.773c-2.637,1.916-4.012,4.957-4.123,9.121
		c0.027,3.66,1.287,6.678,3.779,9.053s6.076,3.615,10.751,3.729c4.389-0.168,7.918-1.063,10.588-2.682
		c2.668-1.619,4.688-3.211,6.059-4.775c-0.168,2.195,0.285,3.854,1.361,4.979s2.719,1.701,4.928,1.729
		c1.033-0.057,1.844-0.141,2.432-0.25c0.586-0.111,0.979-0.166,1.174-0.166V59.25c-0.225,0-0.49,0.021-0.797,0.063
		c-0.309,0.043-0.588,0.063-0.838,0.063c-1.326-0.027-2.217-0.246-2.672-0.656c-0.457-0.41-0.67-0.883-0.641-1.422V29.791
		c0.027-3.232-1.27-6.02-3.891-8.361c-2.621-2.34-6.775-3.566-12.463-3.68c-6.094,0.168-10.542,1.693-13.351,4.58
		s-4.197,6.127-4.17,9.725h5c0.082-2.602,1.074-4.865,2.973-6.791c1.899-1.926,5.166-2.93,9.8-3.014
		c5.592,0.277,8.869,1.607,9.83,3.986c0.961,2.381,1.301,4.082,1.021,5.105C152.748,32.404,152.713,33.271,152.643,33.941z
		 M152.748,47.568c-0.168,3.727-1.793,6.66-4.875,8.801c-3.082,2.143-6.682,3.229-10.799,3.256
		c-3.358-0.084-5.859-0.918-7.496-2.502c-1.637-1.582-2.455-3.467-2.455-5.654c0.055-2.766,0.986-4.807,2.793-6.121
		s4.077-2.23,6.806-2.748c2.73-0.516,5.537-0.928,8.422-1.236c2.883-0.307,5.418-0.781,7.604-1.426V47.568z"/>
	<linearGradient id="XMLID_22_" gradientUnits="userSpaceOnUse" x1="25.689" y1="37.625" x2="25.689" y2="108.6543">
		<stop  offset="0" style="stop-color:#008CFF"/>
		<stop  offset="1" style="stop-color:#FFFFFF"/>
	</linearGradient>
	<path fill="url(#XMLID_22_)" d="M27.327,64.625c8.059-0.309,14.08-2.654,18.068-7.041s5.982-9.234,5.982-14.543h-5.5
		c-0.057,4.674-1.707,8.613-4.953,11.818s-7.695,4.877-13.348,5.016c-8.227-0.363-13.957-3.355-17.188-8.979
		c-3.232-5.623-4.777-11.764-4.637-18.422c0.055-8.557,1.924-15.254,5.604-20.092S20.288,5.084,27.116,5
		c6.338,0.254,10.953,1.969,13.844,5.148s4.32,6.34,4.293,9.477h5.625c0.027-4.51-1.855-8.838-5.646-12.984
		C41.438,2.494,35.499,0.281,27.411,0C18.862,0.084,12.178,2.959,7.358,8.623s-7.271,13.531-7.355,23.6
		c-0.086,8.748,2.023,16.252,6.326,22.51C10.629,60.992,17.629,64.289,27.327,64.625z"/>
	<linearGradient id="XMLID_23_" gradientUnits="userSpaceOnUse" x1="64.1553" y1="37.624" x2="64.1553" y2="108.6556">
		<stop  offset="0" style="stop-color:#008CFF"/>
		<stop  offset="1" style="stop-color:#FFFFFF"/>
	</linearGradient>
	<rect x="61.655" y="1.75" fill="url(#XMLID_23_)" width="5" height="61.25"/>
	<linearGradient id="XMLID_24_" gradientUnits="userSpaceOnUse" x1="95.7114" y1="37.626" x2="95.7114" y2="108.6586">
		<stop  offset="0" style="stop-color:#008CFF"/>
		<stop  offset="1" style="stop-color:#FFFFFF"/>
	</linearGradient>
	<path fill="url(#XMLID_24_)" d="M95.96,64.125c6.076-0.281,10.648-1.998,13.715-5.154s4.6-6.301,4.6-9.43h-5.125
		c-0.029,2.445-1.174,4.744-3.436,6.896s-5.373,3.299-9.334,3.438c-5.107-0.168-8.846-2.002-11.217-5.504s-3.541-7.668-3.514-12.496
		h33.25c0-4.883-0.453-8.795-1.359-11.74c-0.906-2.943-2.279-5.281-4.119-7.012c-1.063-1.166-2.678-2.332-4.844-3.498
		c-2.168-1.166-4.984-1.791-8.449-1.875c-5.988,0.027-10.732,2.037-14.23,6.029c-3.5,3.992-5.291,9.783-5.373,17.375
		c-0.057,6.094,1.434,11.383,4.471,15.867C84.031,61.506,89.019,63.873,95.96,64.125z M85.708,26.959
		c2.482-3,5.871-4.568,10.168-4.709c4.451,0.084,7.832,1.578,10.141,4.48s3.479,6.617,3.508,11.145H81.9
		C81.955,33.598,83.224,29.959,85.708,26.959z"/>
	<linearGradient id="XMLID_25_" gradientUnits="userSpaceOnUse" x1="374.5576" y1="37.626" x2="374.5576" y2="108.6586">
		<stop  offset="0" style="stop-color:#008CFF"/>
		<stop  offset="1" style="stop-color:#FFFFFF"/>
	</linearGradient>
	<path fill="url(#XMLID_25_)" d="M392.387,30.135c-0.906-2.943-2.279-5.281-4.119-7.012c-1.063-1.166-2.678-2.332-4.844-3.498
		c-2.168-1.166-4.984-1.791-8.449-1.875c-5.988,0.027-10.732,2.037-14.23,6.029c-3.5,3.992-5.291,9.783-5.373,17.375
		c-0.057,6.094,1.434,11.383,4.471,15.867c3.035,4.484,8.023,6.852,14.965,7.104c6.076-0.281,10.648-1.998,13.715-5.154
		s4.6-6.301,4.6-9.43h-5.125c-0.029,2.445-1.174,4.744-3.436,6.896s-5.373,3.299-9.334,3.438c-5.107-0.168-8.846-2.002-11.217-5.504
		s-3.541-7.668-3.514-12.496h33.25C393.746,36.992,393.293,33.08,392.387,30.135z M360.746,37.875
		c0.055-4.277,1.324-7.916,3.809-10.916c2.482-3,5.871-4.568,10.168-4.709c4.451,0.084,7.832,1.578,10.141,4.48
		s3.479,6.617,3.508,11.145H360.746z"/>
	<linearGradient id="XMLID_26_" gradientUnits="userSpaceOnUse" x1="325.7422" y1="37.6221" x2="325.7422" y2="108.6547">
		<stop  offset="0" style="stop-color:#008CFF"/>
		<stop  offset="1" style="stop-color:#FFFFFF"/>
	</linearGradient>
	<path fill="url(#XMLID_26_)" d="M340.742,26.563c-1.004-2.145-2.74-4.121-5.209-5.93s-5.654-2.77-9.557-2.883
		c-6.898,0.141-12.004,2.381-15.313,6.721s-4.949,9.846-4.922,16.516c0.055,7.127,1.773,12.736,5.152,16.83s8.07,6.195,14.074,6.309
		c4.238-0.113,7.621-1.014,10.145-2.701c2.523-1.689,4.4-3.666,5.629-5.93V63h5V1.75h-5V26.563z M336.967,55.227
		c-2.711,3.043-6.375,4.551-10.99,4.523c-5.527-0.223-9.428-2.24-11.701-6.053c-2.273-3.811-3.369-8.02-3.283-12.627
		c-0.057-5.34,1.107-9.777,3.492-13.311s6.342-5.369,11.869-5.51c4.754,0.057,8.395,1.727,10.926,5.008
		c2.531,3.283,3.811,7.916,3.838,13.896C341.061,47.494,339.678,52.184,336.967,55.227z"/>
	<linearGradient id="XMLID_27_" gradientUnits="userSpaceOnUse" x1="278.2129" y1="37.626" x2="278.2129" y2="108.6586">
		<stop  offset="0" style="stop-color:#008CFF"/>
		<stop  offset="1" style="stop-color:#FFFFFF"/>
	</linearGradient>
	<path fill="url(#XMLID_27_)" d="M278.195,17.75c-7.473,0.223-12.756,2.609-15.848,7.16s-4.596,9.881-4.512,15.992
		c-0.111,6.094,1.371,11.424,4.449,15.992c3.078,4.57,8.381,6.979,15.91,7.23c7.803-0.309,13.188-2.807,16.152-7.502
		s4.377-9.936,4.238-15.721c0.082-6.363-1.455-11.764-4.615-16.201S285.551,17.945,278.195,17.75z M289.791,54.326
		c-2.391,3.504-6.256,5.313-11.596,5.424c-5.289-0.111-9.135-1.926-11.541-5.445c-2.406-3.518-3.596-8.014-3.568-13.486
		c-0.027-5.367,1.203-9.777,3.693-13.227s6.379-5.23,11.668-5.342c5.367,0.168,9.205,2.039,11.512,5.613s3.432,7.949,3.377,13.123
		C293.363,46.377,292.182,50.822,289.791,54.326z"/>
	<g>
		<linearGradient id="XMLID_28_" gradientUnits="userSpaceOnUse" x1="223.7988" y1="37.6279" x2="223.7988" y2="108.6677">
			<stop  offset="0" style="stop-color:#008CFF"/>
			<stop  offset="1" style="stop-color:#FFFFFF"/>
		</linearGradient>
		<path fill="url(#XMLID_28_)" d="M224.074,0.081c-7.198,0.132-13.027,1.608-17.498,4.417h34.445
			C236.807,1.706,231.174,0.219,224.074,0.081z"/>
		<linearGradient id="XMLID_29_" gradientUnits="userSpaceOnUse" x1="223.5742" y1="37.624" x2="223.5742" y2="108.6555">
			<stop  offset="0" style="stop-color:#008CFF"/>
			<stop  offset="1" style="stop-color:#FFFFFF"/>
		</linearGradient>
		<path fill="url(#XMLID_29_)" d="M224.074,11.206c2.342,0.06,4.392,0.409,6.167,1.032h17.711c-1.063-2.07-2.484-3.979-4.31-5.706
			c-0.344-0.325-0.725-0.616-1.095-0.917h-37.586c-1.46,1.111-2.755,2.385-3.874,3.831c-0.688,0.889-1.308,1.827-1.893,2.792h18.388
			C219.465,11.614,221.628,11.27,224.074,11.206z"/>
		<linearGradient id="XMLID_30_" gradientUnits="userSpaceOnUse" x1="205.4512" y1="37.624" x2="205.4512" y2="108.6555">
			<stop  offset="0" style="stop-color:#008CFF"/>
			<stop  offset="1" style="stop-color:#FFFFFF"/>
		</linearGradient>
		<path fill="url(#XMLID_30_)" d="M210.559,17.624c1.113-1.815,2.637-3.224,4.523-4.27h-16.517
			c-1.128,2.052-2.058,4.249-2.746,6.623h13.511C209.701,19.163,210.101,18.371,210.559,17.624z"/>
		<linearGradient id="XMLID_31_" gradientUnits="userSpaceOnUse" x1="241.376" y1="37.624" x2="241.376" y2="108.6555">
			<stop  offset="0" style="stop-color:#008CFF"/>
			<stop  offset="1" style="stop-color:#FFFFFF"/>
		</linearGradient>
		<path fill="url(#XMLID_31_)" d="M234.299,14.542c1.841,1.619,2.979,3.432,3.426,5.436h12.385
			c-0.186-2.364-0.716-4.574-1.607-6.623h-15.859C233.235,13.709,233.795,14.099,234.299,14.542z"/>
		<linearGradient id="XMLID_32_" gradientUnits="userSpaceOnUse" x1="201.6338" y1="37.624" x2="201.6338" y2="108.6555">
			<stop  offset="0" style="stop-color:#008CFF"/>
			<stop  offset="1" style="stop-color:#FFFFFF"/>
		</linearGradient>
		<path fill="url(#XMLID_32_)" d="M208.844,21.094h-13.303c-0.535,2.088-0.907,4.297-1.117,6.623h12.797
			C207.518,25.32,208.053,23.107,208.844,21.094z"/>
		<linearGradient id="XMLID_33_" gradientUnits="userSpaceOnUse" x1="200.6426" y1="37.623" x2="200.6426" y2="108.6546">
			<stop  offset="0" style="stop-color:#008CFF"/>
			<stop  offset="1" style="stop-color:#FFFFFF"/>
		</linearGradient>
		<path fill="url(#XMLID_33_)" d="M206.945,33.017c-0.026-1.452,0.026-2.843,0.146-4.183h-12.77
			c-0.087,1.306-0.139,2.637-0.127,4.015c-0.006,0.89,0.031,1.751,0.07,2.608h12.757C206.972,34.664,206.941,33.854,206.945,33.017z
			"/>
		<linearGradient id="XMLID_34_" gradientUnits="userSpaceOnUse" x1="201.4766" y1="37.623" x2="201.4766" y2="108.6546">
			<stop  offset="0" style="stop-color:#008CFF"/>
			<stop  offset="1" style="stop-color:#FFFFFF"/>
		</linearGradient>
		<path fill="url(#XMLID_34_)" d="M207.121,36.574h-12.798c0.164,2.328,0.509,4.531,1.017,6.623h13.29
			C207.859,41.203,207.36,38.992,207.121,36.574z"/>
		<linearGradient id="XMLID_35_" gradientUnits="userSpaceOnUse" x1="205.0684" y1="37.624" x2="205.0684" y2="108.6555">
			<stop  offset="0" style="stop-color:#008CFF"/>
			<stop  offset="1" style="stop-color:#FFFFFF"/>
		</linearGradient>
		<path fill="url(#XMLID_35_)" d="M211.018,47.634c-0.744-1.022-1.377-2.134-1.917-3.319h-13.467
			c0.655,2.361,1.525,4.574,2.636,6.623h16.233C213.156,50.062,211.988,48.969,211.018,47.634z"/>
		<linearGradient id="XMLID_36_" gradientUnits="userSpaceOnUse" x1="241.373" y1="37.624" x2="241.373" y2="108.6555">
			<stop  offset="0" style="stop-color:#008CFF"/>
			<stop  offset="1" style="stop-color:#FFFFFF"/>
		</linearGradient>
		<path fill="url(#XMLID_36_)" d="M234.182,49.733c-0.498,0.445-1.038,0.839-1.598,1.204h15.771c0.94-2.024,1.542-4.232,1.808-6.623
			h-12.31C237.302,46.224,236.084,48.031,234.182,49.733z"/>
		<linearGradient id="XMLID_37_" gradientUnits="userSpaceOnUse" x1="223.3477" y1="37.624" x2="223.3477" y2="108.6555">
			<stop  offset="0" style="stop-color:#008CFF"/>
			<stop  offset="1" style="stop-color:#FFFFFF"/>
		</linearGradient>
		<path fill="url(#XMLID_37_)" d="M242.689,58.161c2.159-1.782,3.833-3.827,5.077-6.106h-17.263
			c-1.959,0.846-4.209,1.32-6.766,1.401c-2.716-0.053-5.084-0.53-7.129-1.401h-17.682c0.683,1.137,1.413,2.241,2.244,3.276
			c1,1.245,2.135,2.355,3.39,3.347H242C242.228,58.502,242.468,58.344,242.689,58.161z"/>
		<linearGradient id="XMLID_38_" gradientUnits="userSpaceOnUse" x1="223.2773" y1="37.627" x2="223.2773" y2="108.6514">
			<stop  offset="0" style="stop-color:#008CFF"/>
			<stop  offset="1" style="stop-color:#FFFFFF"/>
		</linearGradient>
		<path fill="url(#XMLID_38_)" d="M240.446,59.795h-34.339c4.486,2.947,10.359,4.504,17.631,4.661
			C230.331,64.336,235.895,62.775,240.446,59.795z"/>
	</g>
</g>
</svg>
